<svg xmlns="http://www.w3.org/2000/svg" viewBox="0 0 1000 1000"><switch><g><linearGradient id="a" gradientUnits="userSpaceOnUse" x1="468.187" y1="-204.458" x2="503.416" y2="615.9"><stop offset="0" stop-color="#87027b"/><stop offset=".197" stop-color="#7e0578"/><stop offset=".524" stop-color="#640e72"/><stop offset=".939" stop-color="#3b1d67"/><stop offset=".994" stop-color="#351f65"/></linearGradient><path d="M590.4 502.9c0 41.7-22.9 83.8-79.1 83.8-42.1 0-73.8-35.4-73.8-82.3v-96.5H565l69-156.2H437.5V27.9l-19.9 3.4c-43.9 7.5-86.5 21.1-126.6 40.4l-9.6 4.6v178.1H89.5l-4.9 8.5c-22.5 38.7-39.4 80.4-50.2 123.7-9.5 37.8-14.2 76.9-14.2 116.3 0 263.8 214.6 478.4 478.4 478.4S977 766.7 977 502.9 762.4 24.4 498.6 24.4c-5.7 0-11.2.1-16.3.3l-16.4.6v139.3l17.8-.8c4.9-.2 9.9-.3 14.9-.3 187.1 0 339.3 152.2 339.3 339.3S685.7 842.2 498.6 842.2 159.3 690 159.3 502.9c0-32.4 4.5-64.3 13.5-95.1h112.1V505c0 129.6 101.6 235 226.4 235 143.6 0 232.4-104.1 232.4-237.1H590.4z" fill="url(#a)"/></g></switch></svg>